<svg width="440" height="30" viewBox="0 0 440 30" fill="none" xmlns="http://www.w3.org/2000/svg">
<g clip-path="url(#clip0)">
<path d="M3 29.5C3 29.3 3.6 27.3 4.4 25.3C5.2 23.2 6.1 19.5 6.3 17.1C7.3 9.1 13.4 4 22 4C30.6 4 36.7 9.1 37.7 17.1C37.9 19.5 38.8 23.2 39.6 25.3C40.4 27.3 41 29.3 41 29.5C41 29.8 32.5 30 22 30C11.6 30 3 29.8 3 29.5Z" fill="#11596E"/>
<path d="M46.3 28.8C47.7 24.9 49 20.1 49.5 16.9C50.6 9.4 56.7 5 66 5C75.3 5 81.4 9.4 82.5 16.9C83 20.1 84.3 24.9 85.7 28.8C86.1 29.7 81.8 30 66 30C50.2 30 45.9 29.7 46.3 28.8Z" fill="#11596E"/>
<path d="M89 29.5C89 29.2 89.6 27.5 90.3 25.7C91.1 23.9 92 20.9 92.4 18.9C93.8 11 99.8 7 110 7C120.2 7 126.2 11 127.6 18.9C128 20.9 128.9 23.9 129.7 25.7C130.4 27.5 131 29.2 131 29.5C131 29.8 121.6 30 110 30C98.4 30 89 29.8 89 29.5Z" fill="#11596E"/>
<path d="M107 16C107 15.5 108.125 15 109.5 15C110.875 15 112 15.5 112 16C112 16.6 110.875 17 109.5 17C108.125 17 107 16.6 107 16Z" fill="white"/>
<path d="M133 29.5C133 29.2 133.6 27.5 134.3 25.7C135.1 23.9 136 20.9 136.4 18.9C137.8 11 143.8 7 154 7C164.2 7 170.2 11 171.6 18.9C172 20.9 172.9 23.9 173.7 25.7C174.4 27.5 175 29.2 175 29.5C175 29.8 165.6 30 154 30C142.5 30 133 29.8 133 29.5Z" fill="#11596E"/>
<path d="M178 29.5C178 29.3 178.6 27.3 179.4 25.3C180.2 23.2 181.1 19.9 181.4 17.9C182.7 10.3 188.8 6 198 6C207.2 6 213.3 10.3 214.6 17.9C214.9 19.9 215.8 23.2 216.6 25.3C217.4 27.3 218 29.3 218 29.5C218 29.8 209 30 198 30C187 30 178 29.8 178 29.5Z" fill="#11596E"/>
<path d="M223 29.5C223 29.3 223.6 27.3 224.4 25.3C225.2 23.2 226.1 19.5 226.3 17.1C227.3 9.1 233.4 4 242 4C250.6 4 256.7 9.1 257.7 17.1C257.9 19.5 258.8 23.2 259.6 25.3C260.4 27.3 261 29.3 261 29.5C261 29.8 252.5 30 242 30C231.6 30 223 29.8 223 29.5Z" fill="#11596E"/>
<path d="M268 29.5C268 29.2 268.7 27.3 269.5 25.3C270.3 23.4 271 19.9 271 17.6C271 9.09997 276.5 2.99997 284.7 2.29997C294 1.49997 299.8 6.69997 301 17.1C301.4 20.6 302.2 24.8 302.8 26.3C303.5 27.9 304 29.3 304 29.6C304 29.8 295.9 30 286 30C276.1 30 268 29.8 268 29.5Z" fill="#11596E"/>
<path d="M313 29.5C313 29.2 313.7 27.3 314.5 25.3C315.3 23.4 316 19.4 316 16.6C316 6.8 321.5 0.5 330 0.5C338.5 0.5 344 6.8 344 16.6C344 19.4 344.7 23.4 345.5 25.3C346.3 27.3 347 29.2 347 29.5C347 29.8 339.4 30 330 30C320.7 30 313 29.8 313 29.5Z" fill="#11596E"/>
<path d="M357 29.5C357 29.2 357.7 27.3 358.5 25.3C359.3 23.4 360 19.4 360 16.6C360 6.8 365.5 0.5 374 0.5C382.5 0.5 388 6.8 388 16.6C388 19.4 388.7 23.4 389.5 25.3C390.3 27.3 391 29.2 391 29.5C391 29.8 383.4 30 374 30C364.7 30 357 29.8 357 29.5Z" fill="#11596E"/>
<path d="M400 29.5C400 29.2 400.7 27.3 401.5 25.3C402.3 23.4 403 19.9 403 17.6C403 9.09997 408.5 2.99997 416.7 2.29997C426 1.49997 431.8 6.69997 433 17.1C433.4 20.6 434.2 24.8 434.8 26.3C435.5 27.9 436 29.3 436 29.6C436 29.8 427.9 30 418 30C408.1 30 400 29.8 400 29.5Z" fill="#11596E"/>
<path d="M11 21C11 19.4 11.5 18 12 18C12.6 18 13 19.4 13 21C13 22.7 12.6 24 12 24C11.5 24 11 22.7 11 21Z" fill="#1C8C82"/>
<path d="M16 20.7001C16 18.3001 16.3 18.0001 17.4 18.9001C18.4 19.7001 19 19.8001 19.5 19.0001C20.5 17.4001 21.8 17.8001 22.2 20.0001C22.6 22.8001 24.3 22.7001 25.2 19.8001C25.7 17.8001 25.8 17.9001 25.9 20.7001C26 23.9001 26 23.9001 21 23.8001C16.2 23.7001 16 23.6001 16 20.7001Z" fill="#1C8C82"/>
<path d="M54 21.5C54 19.9 54.6 19 55.5 19C56.4 19 57 19.9 57 21.5C57 23.1 56.4 24 55.5 24C54.6 24 54 23.1 54 21.5Z" fill="#1C8C82"/>
<path d="M60 21.4C60 18.8 61 18.4 62.7 20.1C63.5 20.9 64 20.9 64.4 20.1C65.4 18.5 67 18.7 67 20.4C67 23 69 23.2 69.9 20.8C70.9 18.5 70.9 18.5 70.9 21.2C71 23.7 70.8 23.8 65.5 23.8C60.4 23.7 60 23.6 60 21.4Z" fill="#1C8C82"/>
<path d="M97 22C97 20.7 97.7 20 99 20C100.3 20 101 20.7 101 22C101 23.3 100.3 24 99 24C97.7 24 97 23.3 97 22Z" fill="#1C8C82"/>
<path d="M104 21.9C104 19.9 106.4 19.3 107.5 21C108 21.8 108.6 21.7 109.6 20.9C110.8 19.9 111.3 20.1 112.4 21.5C113.7 23.3 113.8 23.3 114.8 21.4C115.9 19.6 115.9 19.6 116 21.7C116 23.6 115.5 23.8 110 23.8C104.8 23.8 104 23.6 104 21.9Z" fill="#1C8C82"/>
<path d="M141 22C141 20.7 141.7 20 143 20C144.3 20 145 20.7 145 22C145 23.3 144.3 24 143 24C141.7 24 141 23.3 141 22Z" fill="#1C8C82"/>
<path d="M148 21.9C148 19.9 150.4 19.3 151.5 21C152 21.8 152.6 21.7 153.6 20.9C154.8 19.9 155.3 20.1 156.4 21.5C157.7 23.3 157.8 23.3 158.8 21.4C159.9 19.6 159.9 19.6 160 21.7C160 23.6 159.5 23.8 154 23.8C148.8 23.8 148 23.6 148 21.9Z" fill="#1C8C82"/>
<path d="M186 22C186 20.9 186.7 20 187.5 20C188.3 20 189 20.9 189 22C189 23.1 188.3 24 187.5 24C186.7 24 186 23.1 186 22Z" fill="#1C8C82"/>
<path d="M192 21.9C192 19.8 193.5 19.4 194.5 21C195 21.8 195.6 21.7 196.6 20.9C197.8 19.9 198.3 20.1 199.4 21.5C200.7 23.3 200.8 23.3 201.8 21.4C202.9 19.6 202.9 19.6 203 21.7C203 23.6 202.5 23.8 197.5 23.8C192.8 23.7 192 23.5 192 21.9Z" fill="#1C8C82"/>
<path d="M231 21C231 19.4 231.5 18 232 18C232.6 18 233 19.4 233 21C233 22.7 232.6 24 232 24C231.5 24 231 22.7 231 21Z" fill="#1C8C82"/>
<path d="M236 20.7001C236 18.3001 236.3 18.0001 237.4 18.9001C238.4 19.7001 239 19.8001 239.5 19.0001C240.5 17.4001 241.8 17.8001 242.2 20.0001C242.6 22.8001 244.3 22.7001 245.2 19.8001C245.7 17.8001 245.8 17.9001 245.9 20.7001C246 23.9001 246 23.9001 241 23.8001C236.2 23.7001 236 23.6001 236 20.7001Z" fill="#1C8C82"/>
<path d="M275 20.5C275 18.6 275.5 17 276 17C276.6 17 277 18.6 277 20.5C277 22.4 276.6 24 276 24C275.5 24 275 22.4 275 20.5Z" fill="#1C8C82"/>
<path d="M280 20.2C280 17.4 280.2 17 281.4 17.9C282.5 18.8 283 18.8 283.6 17.8C284.2 16.9 284.6 17.2 285 18.8C285.7 21.8 287.3 21.8 288.2 18.8C288.7 17 288.8 17.2 288.9 20.2L289 23.8H284.5C280 23.7 280 23.6 280 20.2Z" fill="#1C8C82"/>
<path d="M319 20C319 17.8 319.5 16 320 16C320.6 16 321 17.8 321 20C321 22.2 320.6 24 320 24C319.5 24 319 22.2 319 20Z" fill="#1C8C82"/>
<path d="M324 19.7C324 16.4 324.2 16 325.4 16.9C326.5 17.8 327 17.8 327.6 16.8C328.2 15.9 328.6 16.2 329 17.8C329.7 20.8 331.3 20.8 332.2 17.8C332.6 16.1 332.8 16.6 332.9 19.7L333 23.8H328.5L324 23.7V19.7Z" fill="#1C8C82"/>
<path d="M363 20C363 17.8 363.5 16 364 16C364.6 16 365 17.8 365 20C365 22.2 364.6 24 364 24C363.5 24 363 22.2 363 20Z" fill="#1C8C82"/>
<path d="M368 19.7C368 16.4 368.2 16 369.4 16.9C370.5 17.8 371 17.8 371.6 16.8C372.2 15.9 372.6 16.2 373 17.8C373.7 20.8 375.3 20.8 376.2 17.8C376.6 16.1 376.8 16.6 376.9 19.7L377 23.8H372.5L368 23.7V19.7Z" fill="#1C8C82"/>
<path d="M407 20.5C407 18.6 407.5 17 408 17C408.6 17 409 18.6 409 20.5C409 22.4 408.6 24 408 24C407.5 24 407 22.4 407 20.5Z" fill="#1C8C82"/>
<path d="M412 20.2C412 17.4 412.2 17 413.4 17.9C414.5 18.8 415 18.8 415.6 17.8C416.2 16.9 416.6 17.2 417 18.8C417.7 21.8 419.3 21.8 420.2 18.8C420.7 17 420.8 17.2 420.9 20.2L421 23.8H416.5C412 23.7 412 23.6 412 20.2Z" fill="#1C8C82"/>
<path d="M4.49998 28C4.79998 27.5 6.49998 27.3 8.29998 27.5L11.5 28L8.19998 27C5.39998 26.1 5.09998 25.7 5.99998 24C6.49998 23 6.99998 20.6 6.99998 18.8C6.99998 8.20002 18.5 1.80002 29.5 6.40002C33.8 8.20002 36 11.6 36.9 18.2C37.4 21.1 38.1 24.3 38.5 25.3C39.2 27 39.1 27.1 37.2 25.9C35.6 24.9 34.9 24.9 33.6 25.9C32.8 26.6 31.6 26.9 31.1 26.5C30.5 26.2 29.3 26.3 28.5 26.7C27.4 27.4 28 27.6 30.5 27.7C32.4 27.8 34 27.4 34 26.9C34 26.4 34.7 26 35.5 26C36.3 26 37 26.4 37 26.9C37 27.4 37.8 28.1 38.8 28.3C39.7 28.6 32.3 28.8 22.2 28.9C10.6 29 4.09998 28.6 4.49998 28ZM13.5 20.9C13.5 18.5 13 17.5 12 17.5C10.4 17.5 9.49998 21.2 10.4 23.7C11.4 26.3 13.5 24.5 13.5 20.9ZM26.5 21.1C26.5 16.9 24.1 15.6 23.9 19.7L23.7 22.5L23.3 19.8C23 17.8 22.3 17 20.9 17C19.9 17 19 17.6 19 18.3C19 19.2 18.7 19.1 18.1 18.1C16.8 16.1 15 17.7 15 20.9C15 24.6 15.3 24.8 21.3 24.6L26.5 24.5V21.1ZM15.8 13.7C16.2 11.7 13.3 10.3 11.8 11.8C10.3 13.3 11.7 16.2 13.7 15.8C14.7 15.6 15.6 14.7 15.8 13.7ZM22.8 13.7C23.1 12.5 22.5 12 20.6 12C18.1 12 17.1 13.8 18.7 15.4C19.9 16.6 22.5 15.6 22.8 13.7Z" fill="#30B173"/>
<path d="M17 21.8001C17 20.8001 17.4 20.0001 17.9 20.0001C18.4 20.0001 19.5 19.7001 20.4 19.4001C21.5 19.0001 22 19.4001 22 20.8001C22 21.9001 22.8 23.0001 23.8 23.3001C24.7 23.5001 23.6 23.7001 21.3 23.6001C17.9 23.6001 17 23.2001 17 21.8001Z" fill="#30B173"/>
<path d="M47.5 28C47.8 27.5 49.5 27.3 51.3 27.5L54.5 28L51.2 27C48.6 26.1 48.1 25.6 48.8 24.2C49.3 23.3 50 20.6 50.3 18.2C51.3 9.9 56.3 6 66 6C75.8 6 80.4 9.6 81.9 18.6C82.4 21.3 83.1 24.3 83.5 25.3C84.2 27 84.1 27.1 82.2 25.9C80.6 24.9 79.9 24.9 78.6 25.9C77.8 26.6 76.6 26.9 76.1 26.5C75.5 26.2 74.3 26.3 73.5 26.7C72.4 27.4 73 27.6 75.5 27.7C77.4 27.8 79 27.4 79 26.9C79 26.4 79.7 26 80.5 26C81.3 26 82 26.4 82 26.9C82 27.4 82.8 28.1 83.8 28.3C84.7 28.6 76.8 28.8 66.2 28.9C54 29 47.1 28.6 47.5 28ZM57.5 21.5C57.5 19.2 57.1 18.5 55.5 18.5C53.4 18.5 52.4 21 53.4 23.6C54.5 26.4 57.5 24.8 57.5 21.5ZM71.5 21.6C71.5 18.1 69.1 16.8 68.9 20.2L68.7 22.5L68.3 20.3C67.8 17.9 64 17 64 19.3C64 20.1 63.7 20.1 63.1 19.1C61.8 17.1 59 18.6 59 21.3C59 24.6 59.5 24.8 65.8 24.7C71.4 24.5 71.5 24.4 71.5 21.6ZM59.5 14.5C59.5 12.3 56.4 11.2 54.8 12.8C53.1 14.5 54.7 17.2 57.2 16.8C58.7 16.6 59.5 15.8 59.5 14.5ZM67.8 14.8C68.1 13.4 67.5 13 65.1 13C62.2 13 61 14.7 62.7 16.4C64 17.7 67.5 16.5 67.8 14.8Z" fill="#30B173"/>
<path d="M55 22C55 20.9 55.5 20 56 20C56.6 20 57 20.9 57 22C57 23.1 56.6 24 56 24C55.5 24 55 23.1 55 22Z" fill="#30B173"/>
<path d="M61 22.1C61 21 62 20.5 64 20.4C65.8 20.3 67 20.8 67 21.6C67 22.3 67.8 23 68.8 23.3C69.7 23.5 68.4 23.7 65.8 23.7C62.1 23.7 61 23.3 61 22.1Z" fill="#30B173"/>
<path d="M90.5 28.0001C90.8 27.5001 92.5 27.3001 94.3 27.5001L97.5 28.0001L94.3 27.0001C90.9 25.9001 90.9 26.9001 94.4 16.1001C96.1 10.9001 99.9 8.60009 107.9 8.20009C119.6 7.50009 124.3 10.2001 126.5 18.7001C127.2 21.4001 128.1 24.3001 128.6 25.3001C129.2 27.0001 129.1 27.1001 127.2 25.9001C125.6 24.9001 124.9 24.9001 123.6 25.9001C122.8 26.6001 121.6 26.9001 121.1 26.5001C120.5 26.2001 119.3 26.3001 118.5 26.7001C117.4 27.4001 118 27.6001 120.5 27.7001C122.4 27.8001 124 27.4001 124 26.9001C124 26.4001 124.7 26.0001 125.5 26.0001C126.3 26.0001 127 26.4001 127 26.9001C127 27.4001 127.8 28.1001 128.8 28.3001C129.7 28.6001 121.4 28.8001 110.2 28.9001C97.3 29.0001 90.1 28.6001 90.5 28.0001ZM101.5 22.0001C101.5 20.2001 100.9 19.4001 99.2 19.2001C96.8 18.8001 95.4 21.0001 96.4 23.6001C96.7 24.5001 97.9 25.0001 99.2 24.8001C100.9 24.6001 101.5 23.8001 101.5 22.0001ZM116.5 22.1001C116.5 19.3001 114.1 17.9001 113.9 20.7001C113.8 22.3001 113.7 22.3001 113.3 20.8001C112.8 18.8001 109 18.3001 108.9 20.3001C108.9 21.3001 108.7 21.3001 108.3 20.3001C107.6 18.5001 104.1 18.7001 103.4 20.5001C102.1 23.9001 103.7 24.9001 110.2 24.7001C116.1 24.5001 116.5 24.4001 116.5 22.1001ZM103.5 16.0001C103.5 14.2001 99.2 13.4001 97.8 14.8001C96.2 16.4001 98 18.1001 100.8 17.8001C102.4 17.6001 103.5 16.9001 103.5 16.0001ZM112.8 16.3001C113 15.4001 112 15.0001 109.6 15.0001C106.2 15.0001 105.2 15.8001 106.7 17.4001C107.8 18.5001 112.3 17.6001 112.8 16.3001Z" fill="#30B173"/>
<path d="M98 22.5C98 21.7 98.7 21 99.5 21C100.3 21 101 21.7 101 22.5C101 23.3 100.3 24 99.5 24C98.7 24 98 23.3 98 22.5Z" fill="#30B173"/>
<path d="M105 22.6C105 21.9 106.5 21.4 108.5 21.4C110.4 21.4 112 21.7 112 22.1C112 22.5 112.8 23 113.8 23.3C114.7 23.5 113.1 23.7 110.3 23.7C106.8 23.7 105 23.4 105 22.6Z" fill="#30B173"/>
<path d="M134.5 28.0001C134.8 27.5001 136.5 27.3001 138.3 27.5001L141.5 28.0001L138.3 27.0001C134.9 25.9001 134.9 26.9001 138.4 16.1001C140.1 10.9001 143.9 8.60009 151.9 8.20009C163.6 7.50009 168.3 10.2001 170.5 18.7001C171.2 21.4001 172.1 24.3001 172.6 25.3001C173.2 27.0001 173.1 27.1001 171.2 25.9001C169.6 24.9001 168.9 24.9001 167.6 25.9001C166.8 26.6001 165.6 26.9001 165.1 26.5001C164.5 26.2001 163.3 26.3001 162.5 26.7001C161.4 27.4001 162 27.6001 164.5 27.7001C166.4 27.8001 168 27.4001 168 26.9001C168 26.4001 168.7 26.0001 169.5 26.0001C170.3 26.0001 171 26.4001 171 26.9001C171 27.4001 171.8 28.1001 172.8 28.3001C173.7 28.6001 165.4 28.8001 154.2 28.9001C141.3 29.0001 134.1 28.6001 134.5 28.0001ZM145.5 22.0001C145.5 20.2001 144.9 19.4001 143.2 19.2001C141.9 19.0001 140.7 19.5001 140.4 20.4001C139.4 23.0001 140.8 25.2001 143.2 24.8001C144.9 24.6001 145.5 23.8001 145.5 22.0001ZM160.5 22.1001C160.5 19.3001 158.1 17.9001 157.9 20.7001C157.8 22.3001 157.7 22.3001 157.3 20.8001C156.8 18.8001 153 18.3001 152.9 20.3001C152.9 21.3001 152.7 21.3001 152.3 20.3001C151.6 18.5001 148.1 18.7001 147.4 20.5001C146.1 23.9001 147.7 24.9001 154.2 24.7001C160.1 24.5001 160.5 24.4001 160.5 22.1001ZM147.5 16.0001C147.5 14.2001 143.2 13.4001 141.8 14.8001C140.2 16.4001 142 18.1001 144.8 17.8001C146.4 17.6001 147.5 16.9001 147.5 16.0001ZM156.8 16.3001C157 15.4001 156 15.0001 153.6 15.0001C150.2 15.0001 149.2 15.8001 150.7 17.4001C151.8 18.5001 156.3 17.6001 156.8 16.3001Z" fill="#30B173"/>
<path d="M142 22.5C142 21.7 142.7 21 143.5 21C144.3 21 145 21.7 145 22.5C145 23.3 144.3 24 143.5 24C142.7 24 142 23.3 142 22.5Z" fill="#30B173"/>
<path d="M149 22.6C149 21.9 150.5 21.4 152.5 21.4C154.4 21.4 156 21.7 156 22.1C156 22.5 156.8 23 157.8 23.3C158.7 23.5 157.1 23.7 154.3 23.7C150.8 23.7 149 23.4 149 22.6Z" fill="#30B173"/>
<path d="M179.5 28.0001C179.8 27.5001 181.5 27.3001 183.3 27.5001L186.5 28.0001L183.3 27.0001C179.9 25.9001 179.9 26.8001 183.2 16.1001C185 10.0001 188.5 7.70005 196.3 7.20005C207 6.50005 212 9.90005 213.9 19.1001C214.4 21.5001 215.1 24.3001 215.5 25.3001C216.2 27.0001 216.1 27.1001 214.2 25.9001C212.6 24.9001 211.9 24.9001 210.6 25.9001C209.8 26.6001 208.6 26.9001 208.1 26.5001C207.5 26.2001 206.3 26.3001 205.5 26.7001C204.4 27.4001 205 27.6001 207.5 27.7001C209.4 27.8001 211 27.4001 211 26.9001C211 26.4001 211.7 26.0001 212.5 26.0001C213.3 26.0001 214 26.4001 214 26.9001C214 27.4001 214.8 28.1001 215.8 28.3001C216.7 28.6001 208.8 28.8001 198.2 28.9001C186 29.0001 179.1 28.6001 179.5 28.0001ZM189.5 22.0001C189.5 20.4001 188.9 19.4001 187.7 19.2001C185.8 18.8001 184.5 21.2001 185.4 23.6001C186.3 26.1001 189.5 24.9001 189.5 22.0001ZM203.5 22.1001C203.5 19.3001 201.1 17.9001 200.9 20.7001C200.8 22.3001 200.7 22.3001 200.3 20.8001C199.8 18.8001 196 18.3001 196 20.3001C196 21.1001 195.7 21.1001 195.1 20.1001C193.9 18.2001 191 19.5001 191 21.8001C191 24.6001 191.6 24.8001 197.8 24.7001C203.1 24.5001 203.5 24.3001 203.5 22.1001ZM191.5 15.5001C191.5 13.3001 188.4 12.2001 186.8 13.8001C185.1 15.5001 186.7 18.2001 189.2 17.8001C190.7 17.6001 191.5 16.8001 191.5 15.5001ZM199.8 15.8001C200.1 14.4001 199.5 14.0001 197.1 14.0001C194.2 14.0001 193 15.7001 194.7 17.4001C196 18.7001 199.5 17.5001 199.8 15.8001Z" fill="#30B173"/>
<path d="M187 22.5C187 21.7 187.5 21 188 21C188.6 21 189 21.7 189 22.5C189 23.3 188.6 24 188 24C187.5 24 187 23.3 187 22.5Z" fill="#30B173"/>
<path d="M193 22.6C193 22 194.4 21.5 196 21.4C197.7 21.3 199 21.6 199 22.1C199 22.5 199.8 23 200.8 23.3C201.7 23.5 200.4 23.7 197.8 23.7C195 23.7 193 23.2 193 22.6Z" fill="#30B173"/>
<path d="M224.5 28C224.8 27.5 226.5 27.3 228.3 27.5L231.5 28L228.2 27C225.4 26.1 225.1 25.7 226 24C226.5 23 227 20.6 227 18.8C227 8.20002 238.5 1.80002 249.5 6.40002C253.8 8.20002 256 11.6 256.9 18.2C257.4 21.1 258.1 24.3 258.5 25.3C259.2 27 259.1 27.1 257.2 25.9C255.6 24.9 254.9 24.9 253.6 25.9C252.8 26.6 251.6 26.9 251.1 26.5C250.5 26.2 249.3 26.3 248.5 26.7C247.4 27.4 248 27.6 250.5 27.7C252.4 27.8 254 27.4 254 26.9C254 26.4 254.7 26 255.5 26C256.3 26 257 26.4 257 26.9C257 27.4 257.8 28.1 258.8 28.3C259.7 28.6 252.3 28.8 242.2 28.9C230.6 29 224.1 28.6 224.5 28ZM233.5 20.9C233.5 18.5 233 17.5 232 17.5C230.4 17.5 229.5 21.2 230.4 23.7C231.4 26.3 233.5 24.5 233.5 20.9ZM246.5 21.1C246.5 16.9 244.1 15.6 243.9 19.7L243.7 22.5L243.3 19.8C243 17.8 242.3 17 240.9 17C239.9 17 239 17.6 239 18.3C239 19.2 238.7 19.1 238.1 18.1C236.8 16.1 235 17.7 235 20.9C235 24.6 235.3 24.8 241.3 24.6L246.5 24.5V21.1ZM235.8 13.7C236.2 11.7 233.3 10.3 231.8 11.8C230.3 13.3 231.7 16.2 233.7 15.8C234.7 15.6 235.6 14.7 235.8 13.7ZM242.8 13.7C243.1 12.5 242.5 12 240.6 12C238.1 12 237.1 13.8 238.7 15.4C239.9 16.6 242.5 15.6 242.8 13.7Z" fill="#30B173"/>
<path d="M237 21.8001C237 20.8001 237.4 20.0001 237.9 20.0001C238.4 20.0001 239.5 19.7001 240.4 19.4001C241.5 19.0001 242 19.4001 242 20.8001C242 21.9001 242.8 23.0001 243.8 23.3001C244.7 23.5001 243.6 23.7001 241.3 23.6001C237.9 23.6001 237 23.2001 237 21.8001Z" fill="#30B173"/>
<path d="M269.5 28C269.8 27.4 271.3 27.2 272.8 27.5L275.5 28L272.8 26.9C270.5 26 270.2 25.5 271 24C271.6 23 272 20.2 272 17.8C272 6.50001 281.9 7.86781e-06 292.5 4.40001C297.1 6.30001 299.1 9.90001 300 17.3C300.4 20.7 301.1 24.3 301.5 25.3C302.2 27 302.1 27.1 300.2 25.9C298.6 24.9 297.9 24.9 296.6 25.9C295.8 26.6 294.6 26.9 294.1 26.5C293.5 26.2 292.3 26.3 291.5 26.7C290.4 27.4 291 27.6 293.5 27.7C295.4 27.8 297 27.4 297 26.9C297 26.4 297.7 26 298.5 26C299.3 26 300 26.4 300 26.9C300 27.4 300.8 28.1 301.8 28.3C302.7 28.6 295.7 28.8 286.2 28.9C274.8 29 269.1 28.7 269.5 28ZM277.5 20.4C277.5 17.6 277.1 16.5 276 16.5C274.4 16.5 273.4 21 274.4 23.7C275.5 26.5 277.5 24.4 277.5 20.4ZM289.5 20.6C289.5 16 287.1 14.3 286.9 18.7L286.7 21.5L286.3 18.8C285.9 16.1 283 14.8 283 17.3C283 18.2 282.7 18.1 282.1 17.1C280.7 15 279 16.8 279 20.4C279 22.2 279.3 23.9 279.6 24.2C279.9 24.5 282.2 24.7 284.8 24.6L289.5 24.5V20.6ZM279.5 12C279.5 9.30001 277.3 8.10001 276.4 10.4C275.6 12.6 276.7 15.3 278.3 14.7C278.9 14.5 279.5 13.3 279.5 12ZM285.8 12.2C286.1 10.5 285.6 10 284.1 10C282.7 10 282 10.6 282 11.8C282 15.6 285.3 15.9 285.8 12.2Z" fill="#30B173"/>
<path d="M276.2 21C276.2 19.1 276.4 18.3 276.7 19.3C276.9 20.2 276.9 21.8 276.7 22.8C276.4 23.7 276.2 22.9 276.2 21Z" fill="#30B173"/>
<path d="M281 21.4C281 20.1 281.8 19 283 18.7C284.5 18.3 285 18.7 285 20.1C285 21.1 285.7 22 286.5 22C287.3 22 288 22.4 288 22.9C288 23.4 286.4 23.8 284.5 23.7C281.6 23.6 281 23.2 281 21.4Z" fill="#30B173"/>
<path d="M314.5 28C314.8 27.4 316.3 27.2 317.8 27.5L320.5 28L317.7 26.9C316 26.2 315.3 25.4 315.7 24.7C316.1 24 316.7 20.2 317.1 16.2C317.8 7.50002 319.9 4.10002 325.8 2.00002C329.5 0.700024 330.5 0.700024 334.2 2.00002C340.1 4.10002 342.2 7.50002 343 16.2C343.4 20.2 344 24.3 344.5 25.3C345.2 27 345.1 27.1 343.2 25.9C341.6 24.9 340.9 24.9 339.6 25.9C338.8 26.6 337.6 26.9 337.1 26.5C336.5 26.2 335.3 26.3 334.5 26.7C333.4 27.4 334 27.6 336.5 27.7C338.4 27.8 340 27.4 340 26.9C340 26.4 340.7 26 341.5 26C342.3 26 343 26.4 343 26.9C343 27.4 343.8 28.1 344.8 28.3C345.7 28.6 339.2 28.8 330.2 28.9C319.5 29 314.1 28.7 314.5 28ZM321.5 19.9C321.5 16.7 321.1 15.5 320 15.5C318.4 15.5 317.4 20.9 318.4 23.7C319.6 26.7 321.5 24.3 321.5 19.9ZM333.5 20.1C333.5 15.1 331.1 12.9 330.9 17.7L330.7 20.5L330.3 17.8C329.9 15.1 327 13.8 327 16.3C327 17.2 326.7 17.1 326.1 16.1C324.7 13.8 323 15.9 323 19.9C323 22 323.3 23.9 323.6 24.2C323.9 24.5 326.2 24.7 328.8 24.6L333.5 24.5V20.1ZM323.5 10.4C323.5 8.50002 323 7.50002 322 7.50002C320.4 7.50002 319.5 10.3 320.4 12.6C321.4 15.1 323.5 13.6 323.5 10.4ZM329.8 10.7C330.1 8.50002 329.7 8.00002 328.1 8.00002C326.6 8.00002 326 8.60002 326 10.3C326 14.9 329.3 15.2 329.8 10.7Z" fill="#30B173"/>
<path d="M320.3 20.5001C320.3 18.3001 320.5 17.5001 320.7 18.8001C320.9 20.0001 320.9 21.8001 320.7 22.8001C320.4 23.7001 320.2 22.7001 320.3 20.5001Z" fill="#30B173"/>
<path d="M325 20.9C325 19.1 325.6 18.1 327 17.7C328.5 17.3 329 17.7 329 19.1C329 20.1 329.7 21 330.5 21C331.3 21 332 21.6 332 22.4C332 23.4 330.9 23.8 328.5 23.7C325.4 23.6 325 23.3 325 20.9Z" fill="#30B173"/>
<path d="M358.5 28C358.8 27.4 360.3 27.2 361.8 27.5L364.5 28L361.7 26.9C360 26.2 359.3 25.4 359.7 24.7C360.1 24 360.7 20.2 361.1 16.2C361.8 7.50002 363.9 4.10002 369.8 2.00002C373.5 0.700024 374.5 0.700024 378.2 2.00002C384.1 4.10002 386.2 7.50002 387 16.2C387.4 20.2 388 24.3 388.5 25.3C389.2 27 389.1 27.1 387.2 25.9C385.6 24.9 384.9 24.9 383.6 25.9C382.8 26.6 381.6 26.9 381.1 26.5C380.5 26.2 379.3 26.3 378.5 26.7C377.4 27.4 378 27.6 380.5 27.7C382.4 27.8 384 27.4 384 26.9C384 26.4 384.7 26 385.5 26C386.3 26 387 26.4 387 26.9C387 27.4 387.8 28.1 388.8 28.3C389.7 28.6 383.2 28.8 374.2 28.9C363.5 29 358.1 28.7 358.5 28ZM365.5 19.9C365.5 16.7 365.1 15.5 364 15.5C362.4 15.5 361.4 20.9 362.4 23.7C363.6 26.7 365.5 24.3 365.5 19.9ZM377.5 20.1C377.5 15.1 375.1 12.9 374.9 17.7L374.7 20.5L374.3 17.8C373.9 15.1 371 13.8 371 16.3C371 17.2 370.7 17.1 370.1 16.1C368.7 13.8 367 15.9 367 19.9C367 22 367.3 23.9 367.6 24.2C367.9 24.5 370.2 24.7 372.8 24.6L377.5 24.5V20.1ZM367.5 10.4C367.5 8.50002 367 7.50002 366 7.50002C364.4 7.50002 363.5 10.3 364.4 12.6C365.4 15.1 367.5 13.6 367.5 10.4ZM373.8 10.7C374.1 8.50002 373.7 8.00002 372.1 8.00002C370.6 8.00002 370 8.60002 370 10.3C370 14.9 373.3 15.2 373.8 10.7Z" fill="#30B173"/>
<path d="M364.3 20.5001C364.3 18.3001 364.5 17.5001 364.7 18.8001C364.9 20.0001 364.9 21.8001 364.7 22.8001C364.4 23.7001 364.2 22.7001 364.3 20.5001Z" fill="#30B173"/>
<path d="M369 20.9C369 19.1 369.6 18.1 371 17.7C372.5 17.3 373 17.7 373 19.1C373 20.1 373.7 21 374.5 21C375.3 21 376 21.6 376 22.4C376 23.4 374.9 23.8 372.5 23.7C369.4 23.6 369 23.3 369 20.9Z" fill="#30B173"/>
<path d="M401.5 28C401.8 27.4 403.3 27.2 404.8 27.5L407.5 28L404.8 26.9C402.5 26 402.2 25.5 403 24C403.6 23 404 20.2 404 17.8C404 6.50001 413.9 7.86781e-06 424.5 4.40001C429.1 6.30001 431.1 9.90001 432 17.3C432.4 20.7 433.1 24.3 433.5 25.3C434.2 27 434.1 27.1 432.2 25.9C430.6 24.9 429.9 24.9 428.6 25.9C427.8 26.6 426.6 26.9 426.1 26.5C425.5 26.2 424.3 26.3 423.5 26.7C422.4 27.4 423 27.6 425.5 27.7C427.4 27.8 429 27.4 429 26.9C429 26.4 429.7 26 430.5 26C431.3 26 432 26.4 432 26.9C432 27.4 432.8 28.1 433.8 28.3C434.7 28.6 427.7 28.8 418.2 28.9C406.8 29 401.1 28.7 401.5 28ZM409.5 20.4C409.5 17.6 409.1 16.5 408 16.5C406.4 16.5 405.4 21 406.4 23.7C407.5 26.5 409.5 24.4 409.5 20.4ZM421.5 20.6C421.5 16 419.1 14.3 418.9 18.7L418.7 21.5L418.3 18.8C417.9 16.1 415 14.8 415 17.3C415 18.2 414.7 18.1 414.1 17.1C412.7 15 411 16.8 411 20.4C411 22.2 411.3 23.9 411.6 24.2C411.9 24.5 414.2 24.7 416.8 24.6L421.5 24.5V20.6ZM411.5 12C411.5 9.30001 409.3 8.10001 408.4 10.4C407.6 12.6 408.7 15.3 410.3 14.7C410.9 14.5 411.5 13.3 411.5 12ZM417.8 12.2C418.1 10.5 417.6 10 416.1 10C414.7 10 414 10.6 414 11.8C414 15.6 417.3 15.9 417.8 12.2Z" fill="#30B173"/>
<path d="M408.2 21C408.2 19.1 408.4 18.3 408.7 19.3C408.9 20.2 408.9 21.8 408.7 22.8C408.4 23.7 408.2 22.9 408.2 21Z" fill="#30B173"/>
<path d="M413 21.4C413 20.1 413.8 19 415 18.7C416.5 18.3 417 18.7 417 20.1C417 21.1 417.7 22 418.5 22C419.3 22 420 22.4 420 22.9C420 23.4 418.4 23.8 416.5 23.7C413.6 23.6 413 23.2 413 21.4Z" fill="#30B173"/>
<path d="M15.8 28.3C17.5 28.1 20.5 28.1 22.3 28.3C24 28.5 22.6 28.7 19 28.7C15.4 28.7 14 28.5 15.8 28.3Z" fill="#6ADA8F"/>
<path d="M59.3 28.3C61.3 28.1 64.7 28.1 66.8 28.3C68.8 28.5 67.1 28.7 63 28.7C58.9 28.7 57.2 28.5 59.3 28.3Z" fill="#6ADA8F"/>
<path d="M102.8 28.3C105.1 28.1 108.9 28.1 111.3 28.3C113.6 28.5 111.7 28.7 107 28.7C102.3 28.7 100.4 28.5 102.8 28.3Z" fill="#6ADA8F"/>
<path d="M146.8 28.3C149.1 28.1 152.9 28.1 155.3 28.3C157.6 28.5 155.7 28.7 151 28.7C146.3 28.7 144.4 28.5 146.8 28.3Z" fill="#6ADA8F"/>
<path d="M191.3 28.3C193.3 28.1 196.7 28.1 198.8 28.3C200.8 28.5 199.1 28.7 195 28.7C190.9 28.7 189.2 28.5 191.3 28.3Z" fill="#6ADA8F"/>
<path d="M235.8 28.3C237.5 28.1 240.5 28.1 242.3 28.3C244 28.5 242.6 28.7 239 28.7C235.4 28.7 234 28.5 235.8 28.3Z" fill="#6ADA8F"/>
<path d="M280.3 28.3C281.8 28.1 284.2 28.1 285.8 28.3C287.3 28.5 286 28.7 283 28.7C280 28.7 278.7 28.5 280.3 28.3Z" fill="#6ADA8F"/>
<path d="M324.8 28.3C326 28.1 328 28.1 329.3 28.3C330.5 28.5 329.5 28.7 327 28.7C324.5 28.7 323.5 28.5 324.8 28.3Z" fill="#6ADA8F"/>
<path d="M368.8 28.3C370 28.1 372 28.1 373.3 28.3C374.5 28.5 373.5 28.7 371 28.7C368.5 28.7 367.5 28.5 368.8 28.3Z" fill="#6ADA8F"/>
<path d="M412.3 28.3C413.8 28.1 416.2 28.1 417.8 28.3C419.3 28.5 418 28.7 415 28.7C412 28.7 410.7 28.5 412.3 28.3Z" fill="#6ADA8F"/>
<path d="M9.79998 26C7.49998 24.6 7.39998 17.5 9.69998 11.9C11.5 7.2 15.4 5 21.9 5C28.2 5 30.9 6.5 33 11.2C35.9 17.5 35.6 22.5 32.4 24.7C29.2 26.8 12.6 27.7 9.79998 26ZM13.5 21.4C13.5 18.6 13.1 17.5 12 17.5C10.4 17.5 9.39998 22 10.4 24.7C11.5 27.5 13.5 25.4 13.5 21.4ZM19.3 24.8C19.7 23.8 20.1 23.8 20.8 24.8C21.3 25.6 22.8 26 24.1 25.8C26.2 25.5 26.5 25 26.5 21.6C26.5 17 24.1 15.3 23.9 19.7L23.7 22.5L23.3 19.8C23 17.8 22.3 17 20.9 17C19.9 17 19 17.6 19 18.3C19 19.2 18.7 19.1 18.1 18.1C17.6 17.4 16.7 17.1 16.1 17.4C14.9 18.2 14.6 24.2 15.7 25.3C16.8 26.4 18.8 26.1 19.3 24.8ZM33.6 22.9C34.6 21.2 32.3 19.3 30.9 20.7C29.7 21.9 30.5 24 32 24C32.5 24 33.2 23.5 33.6 22.9ZM15.8 13.8C15.6 12.3 14.8 11.5 13.5 11.5C12.2 11.5 11.4 12.3 11.2 13.8C10.9 15.6 11.3 16 13.5 16C15.7 16 16.1 15.6 15.8 13.8ZM23 14C23 12.5 22.3 12 20.5 12C18.7 12 18 12.5 18 14C18 15.5 18.7 16 20.5 16C22.3 16 23 15.5 23 14Z" fill="#6ADA8F"/>
<path d="M52.8 26C50.5 24.6 50.4 18.5 52.7 12.9C54.6 8 58.4 6 65.9 6C73.2 6 75.8 7.3 78 12.2C80.8 18.5 80.6 22.6 77.3 24.7C74.1 26.8 55.6 27.8 52.8 26ZM57.5 22C57.5 19.2 57.1 18.5 55.5 18.5C54.2 18.5 53.4 19.3 53.2 20.8C52.7 24.2 53.7 26.2 55.7 25.8C57 25.6 57.5 24.5 57.5 22ZM64.3 24.8C64.7 23.8 65.1 23.8 65.8 24.8C66.3 25.6 67.8 26 69.1 25.8C71.1 25.6 71.5 24.9 71.5 22.1C71.5 18.2 69.1 16.5 68.9 20.2L68.7 22.5L68.3 20.3C67.8 17.9 64 17 64 19.3C64 20.1 63.7 20.1 63.1 19.1C61.7 16.9 59 18.6 59 21.8C59 23.4 59.3 25 59.7 25.3C60.8 26.5 63.8 26.1 64.3 24.8ZM78.6 22.9C79.6 21.2 77.3 19.3 75.9 20.7C74.7 21.9 75.5 24 77 24C77.5 24 78.2 23.5 78.6 22.9ZM59.8 14.8C59.6 13.1 58.8 12.5 57 12.5C55.2 12.5 54.4 13.1 54.2 14.8C53.9 16.7 54.3 17 57 17C59.7 17 60.1 16.7 59.8 14.8ZM68 15C68 13.4 67.3 13 65 13C62.7 13 62 13.4 62 15C62 16.6 62.7 17 65 17C67.3 17 68 16.6 68 15Z" fill="#6ADA8F"/>
<path d="M95.8 25.9001C93.4 24.6001 93.5 19.7001 95.9 14.4001C98.3 9.20008 102.3 7.60008 112.2 8.20008C120.2 8.60008 122 10.0001 124.2 17.2001C125.6 22.1001 124.7 24.0001 119.9 25.7001C115.7 27.2001 98.2 27.3001 95.8 25.9001ZM101.5 22.5001C101.5 20.0001 101.1 19.5001 99 19.5001C97.4 19.5001 96.4 20.1001 96.2 21.3001C95.6 24.3001 96.8 26.2001 99.2 25.8001C101 25.6001 101.5 24.9001 101.5 22.5001ZM109.3 24.8001C109.7 23.8001 110.1 23.8001 110.8 24.8001C111.3 25.6001 112.8 26.0001 114.1 25.8001C116 25.6001 116.5 24.9001 116.5 22.6001C116.5 19.4001 114.1 17.6001 113.9 20.7001C113.8 22.3001 113.7 22.3001 113.3 20.8001C112.8 18.8001 109 18.3001 109 20.3001C109 21.2001 108.7 21.2001 108.1 20.2001C106 16.9001 101.9 20.7001 103.4 24.6001C104.1 26.3001 108.6 26.5001 109.3 24.8001ZM123.6 22.9001C124.6 21.2001 122.3 19.3001 120.9 20.7001C119.7 21.9001 120.5 24.0001 122 24.0001C122.5 24.0001 123.2 23.5001 123.6 22.9001ZM103.8 16.3001C103.6 15.1001 102.5 14.5001 100.5 14.5001C98.5 14.5001 97.4 15.1001 97.2 16.3001C96.9 17.7001 97.6 18.0001 100.5 18.0001C103.4 18.0001 104.1 17.7001 103.8 16.3001ZM113 16.5001C113 15.5001 111.9 15.0001 109.5 15.0001C107.1 15.0001 106 15.5001 106 16.5001C106 17.5001 107.1 18.0001 109.5 18.0001C111.9 18.0001 113 17.5001 113 16.5001Z" fill="#6ADA8F"/>
<path d="M139.8 25.9001C137.4 24.6001 137.5 19.7001 139.9 14.4001C142.3 9.20008 146.3 7.60008 156.2 8.20008C164.2 8.60008 166 10.0001 168.2 17.2001C169.6 22.1001 168.7 24.0001 163.9 25.7001C159.7 27.2001 142.2 27.3001 139.8 25.9001ZM145.5 22.5001C145.5 20.0001 145.1 19.5001 143 19.5001C141.4 19.5001 140.4 20.1001 140.2 21.3001C139.6 24.3001 140.8 26.2001 143.2 25.8001C145 25.6001 145.5 24.9001 145.5 22.5001ZM153.3 24.8001C153.7 23.8001 154.1 23.8001 154.8 24.8001C155.3 25.6001 156.8 26.0001 158.1 25.8001C160 25.6001 160.5 24.9001 160.5 22.6001C160.5 19.4001 158.1 17.6001 157.9 20.7001C157.8 22.3001 157.7 22.3001 157.3 20.8001C156.8 18.8001 153 18.3001 153 20.3001C153 21.2001 152.7 21.2001 152.1 20.2001C150 16.9001 145.9 20.7001 147.4 24.6001C148.1 26.3001 152.6 26.5001 153.3 24.8001ZM167.6 22.9001C168.6 21.2001 166.3 19.3001 164.9 20.7001C163.7 21.9001 164.5 24.0001 166 24.0001C166.5 24.0001 167.2 23.5001 167.6 22.9001ZM147.8 16.3001C147.6 15.1001 146.5 14.5001 144.5 14.5001C142.5 14.5001 141.4 15.1001 141.2 16.3001C140.9 17.7001 141.6 18.0001 144.5 18.0001C147.4 18.0001 148.1 17.7001 147.8 16.3001ZM157 16.5001C157 15.5001 155.9 15.0001 153.5 15.0001C151.1 15.0001 150 15.5001 150 16.5001C150 17.5001 151.1 18.0001 153.5 18.0001C155.9 18.0001 157 17.5001 157 16.5001Z" fill="#6ADA8F"/>
<path d="M184.8 26C182.5 24.6 182.5 19.4 184.7 13.9C186.6 9 190.4 7 197.9 7C205.2 7 207.8 8.3 210 13.2C214.6 23.4 211.8 26.3 196.6 26.8C190.6 26.9 185.8 26.6 184.8 26ZM189.5 22.5C189.5 20.2 189.1 19.5 187.5 19.5C185.4 19.5 184.4 22 185.4 24.6C186.5 27.4 189.5 25.8 189.5 22.5ZM196.3 24.8C196.7 23.8 197.1 23.8 197.8 24.8C198.3 25.6 199.8 26 201.1 25.8C203 25.6 203.5 24.9 203.5 22.6C203.5 19.4 201.1 17.6 200.9 20.7C200.8 22.3 200.7 22.3 200.3 20.8C199.8 18.8 196 18.3 196 20.3C196 21.1 195.7 21.1 195.1 20.1C193.8 18.1 191 19.6 191 22.3C191 23.6 191.3 25 191.7 25.3C192.8 26.5 195.8 26.1 196.3 24.8ZM210.6 22.9C211.6 21.2 209.3 19.3 207.9 20.7C206.7 21.9 207.5 24 209 24C209.5 24 210.2 23.5 210.6 22.9ZM191.8 15.8C191.6 14.1 190.8 13.5 189 13.5C187.2 13.5 186.4 14.1 186.2 15.8C185.9 17.7 186.3 18 189 18C191.7 18 192.1 17.7 191.8 15.8ZM200 16C200 14.4 199.3 14 197 14C194.7 14 194 14.4 194 16C194 17.6 194.7 18 197 18C199.3 18 200 17.6 200 16Z" fill="#6ADA8F"/>
<path d="M229.8 26C227.5 24.6 227.4 17.5 229.7 11.9C231.5 7.2 235.4 5 241.9 5C248.2 5 250.9 6.5 253 11.2C255.9 17.5 255.6 22.5 252.4 24.7C249.2 26.8 232.6 27.7 229.8 26ZM233.5 21.4C233.5 18.6 233.1 17.5 232 17.5C230.4 17.5 229.4 22 230.4 24.7C231.5 27.5 233.5 25.4 233.5 21.4ZM239.3 24.8C239.7 23.8 240.1 23.8 240.8 24.8C241.3 25.6 242.8 26 244.1 25.8C246.2 25.5 246.5 25 246.5 21.6C246.5 17 244.1 15.3 243.9 19.7L243.7 22.5L243.3 19.8C243 17.8 242.3 17 240.9 17C239.9 17 239 17.6 239 18.3C239 19.2 238.7 19.1 238.1 18.1C237.6 17.4 236.7 17.1 236.1 17.4C234.9 18.2 234.6 24.2 235.7 25.3C236.8 26.4 238.8 26.1 239.3 24.8ZM253.6 22.9C254.6 21.2 252.3 19.3 250.9 20.7C249.7 21.9 250.5 24 252 24C252.5 24 253.2 23.5 253.6 22.9ZM235.8 13.8C235.6 12.3 234.8 11.5 233.5 11.5C232.2 11.5 231.4 12.3 231.2 13.8C230.9 15.6 231.3 16 233.5 16C235.7 16 236.1 15.6 235.8 13.8ZM243 14C243 12.5 242.3 12 240.5 12C238.7 12 238 12.5 238 14C238 15.5 238.7 16 240.5 16C242.3 16 243 15.5 243 14Z" fill="#6ADA8F"/>
<path d="M274.3 25.9001C272.5 24.1001 272.7 14.8001 274.7 9.90007C277.1 3.90007 284.4 1.30007 291.5 4.00007C294.9 5.30007 297.9 12.0001 298 18.2001C298 22.2001 297.6 23.2001 295.4 24.7001C292 26.9001 276.1 27.8001 274.3 25.9001ZM277.5 20.9001C277.5 17.7001 277.1 16.5001 276 16.5001C274.4 16.5001 273.4 21.9001 274.4 24.7001C275.6 27.7001 277.5 25.3001 277.5 20.9001ZM283.3 24.8001C283.7 23.8001 284.1 23.8001 284.8 24.8001C285.3 25.6001 286.6 26.0001 287.6 25.8001C289.1 25.5001 289.5 24.6001 289.5 21.1001C289.5 16.1001 287.1 13.9001 286.9 18.7001L286.7 21.5001L286.3 18.8001C285.9 16.1001 283 14.8001 283 17.3001C283 18.2001 282.7 18.1001 282.1 17.1001C280.7 14.8001 279 16.9001 279 20.9001C279 23.0001 279.3 25.0001 279.7 25.3001C280.8 26.4001 282.8 26.1001 283.3 24.8001ZM296.6 22.9001C297.6 21.2001 295.3 19.3001 293.9 20.7001C292.7 21.9001 293.5 24.0001 295 24.0001C295.5 24.0001 296.2 23.5001 296.6 22.9001ZM279.8 12.3001C279.6 10.6001 278.9 9.50007 278 9.50007C277.1 9.50007 276.4 10.6001 276.2 12.3001C275.9 14.5001 276.3 15.0001 278 15.0001C279.7 15.0001 280.1 14.5001 279.8 12.3001ZM286 12.5001C286 10.7001 285.5 10.0001 284 10.0001C282.5 10.0001 282 10.7001 282 12.5001C282 14.3001 282.5 15.0001 284 15.0001C285.5 15.0001 286 14.3001 286 12.5001Z" fill="#6ADA8F"/>
<path d="M320.8 25.7C321.6 24.8 322 22.3 321.8 19.8C321.6 16.4 321.1 15.5 319.8 15.6C317.4 15.8 317.5 12.7 319.9 7.30003C321.5 3.90003 322.6 2.90003 325.9 1.90003C335 -0.799972 341 5.20003 341 17.2C341 24.7 339 26.2 327.7 26.8C320.3 27.2 319.7 27.1 320.8 25.7ZM327.3 24.8C327.7 23.8 328.1 23.8 328.8 24.8C329.3 25.6 330.6 26 331.6 25.8C333.2 25.5 333.5 24.6 333.5 20.6C333.5 15.2 331.1 12.6 330.9 17.7L330.7 20.5L330.3 17.8C329.9 15.1 327 13.8 327 16.3C327 17.2 326.7 17.1 326.1 16.1C324.6 13.7 323 15.9 323 20.4C323 22.7 323.3 25 323.7 25.3C324.8 26.4 326.8 26.1 327.3 24.8ZM339.6 22.9C340.6 21.2 338.3 19.3 336.9 20.7C335.7 21.9 336.5 24 338 24C338.5 24 339.2 23.5 339.6 22.9ZM323.8 10.8C323.6 8.70003 323 7.50003 322 7.50003C321 7.50003 320.4 8.70003 320.2 10.8C319.9 13.5 320.2 14 322 14C323.8 14 324.1 13.5 323.8 10.8ZM330 11C330 8.70003 329.6 8.00003 328 8.00003C326.4 8.00003 326 8.70003 326 11C326 13.3 326.4 14 328 14C329.6 14 330 13.3 330 11Z" fill="#6ADA8F"/>
<path d="M364.8 25.7C365.6 24.8 366 22.3 365.8 19.8C365.6 16.4 365.1 15.5 363.8 15.6C361.4 15.8 361.5 12.7 363.9 7.30003C365.5 3.90003 366.6 2.90003 369.9 1.90003C379 -0.799972 385 5.20003 385 17.2C385 24.7 383 26.2 371.7 26.8C364.3 27.2 363.7 27.1 364.8 25.7ZM371.3 24.8C371.7 23.8 372.1 23.8 372.8 24.8C373.3 25.6 374.6 26 375.6 25.8C377.2 25.5 377.5 24.6 377.5 20.6C377.5 15.2 375.1 12.6 374.9 17.7L374.7 20.5L374.3 17.8C373.9 15.1 371 13.8 371 16.3C371 17.2 370.7 17.1 370.1 16.1C368.6 13.7 367 15.9 367 20.4C367 22.7 367.3 25 367.7 25.3C368.8 26.4 370.8 26.1 371.3 24.8ZM383.6 22.9C384.6 21.2 382.3 19.3 380.9 20.7C379.7 21.9 380.5 24 382 24C382.5 24 383.2 23.5 383.6 22.9ZM367.8 10.8C367.6 8.70003 367 7.50003 366 7.50003C365 7.50003 364.4 8.70003 364.2 10.8C363.9 13.5 364.2 14 366 14C367.8 14 368.1 13.5 367.8 10.8ZM374 11C374 8.70003 373.6 8.00003 372 8.00003C370.4 8.00003 370 8.70003 370 11C370 13.3 370.4 14 372 14C373.6 14 374 13.3 374 11Z" fill="#6ADA8F"/>
<path d="M406.3 25.9001C404.5 24.1001 404.7 14.8001 406.7 9.90007C409.1 3.90007 416.4 1.30007 423.5 4.00007C426.9 5.30007 429.9 12.0001 430 18.2001C430 22.2001 429.6 23.2001 427.4 24.7001C424 26.9001 408.1 27.8001 406.3 25.9001ZM409.5 20.9001C409.5 17.7001 409.1 16.5001 408 16.5001C406.4 16.5001 405.4 21.9001 406.4 24.7001C407.6 27.7001 409.5 25.3001 409.5 20.9001ZM415.3 24.8001C415.7 23.8001 416.1 23.8001 416.8 24.8001C417.3 25.6001 418.6 26.0001 419.6 25.8001C421.1 25.5001 421.5 24.6001 421.5 21.1001C421.5 16.1001 419.1 13.9001 418.9 18.7001L418.7 21.5001L418.3 18.8001C417.9 16.1001 415 14.8001 415 17.3001C415 18.2001 414.7 18.1001 414.1 17.1001C412.7 14.8001 411 16.9001 411 20.9001C411 23.0001 411.3 25.0001 411.7 25.3001C412.8 26.4001 414.8 26.1001 415.3 24.8001ZM428.6 22.9001C429.6 21.2001 427.3 19.3001 425.9 20.7001C424.7 21.9001 425.5 24.0001 427 24.0001C427.5 24.0001 428.2 23.5001 428.6 22.9001ZM411.8 12.3001C411.6 10.6001 410.9 9.50007 410 9.50007C409.1 9.50007 408.4 10.6001 408.2 12.3001C407.9 14.5001 408.3 15.0001 410 15.0001C411.7 15.0001 412.1 14.5001 411.8 12.3001ZM418 12.5001C418 10.7001 417.5 10.0001 416 10.0001C414.5 10.0001 414 10.7001 414 12.5001C414 14.3001 414.5 15.0001 416 15.0001C417.5 15.0001 418 14.3001 418 12.5001Z" fill="#6ADA8F"/>
<path d="M151 16.5C151 16.25 151.9 16 153 16C154.1 16 155 16.25 155 16.5C155 16.8 154.1 17 153 17C151.9 17 151 16.8 151 16.5Z" fill="white"/>
<path d="M98 16C98 15.5 99.1 15 100.5 15C101.9 15 103 15.5 103 16C103 16.6 101.9 17 100.5 17C99.1 17 98 16.6 98 16Z" fill="white"/>
<path d="M142 16C142 15.5 143.1 15 144.5 15C145.9 15 147 15.5 147 16C147 16.6 145.9 17 144.5 17C143.1 17 142 16.6 142 16Z" fill="white"/>
<path d="M187 15.5C187 14.7 187.9 14 189 14C190.1 14 191 14.7 191 15.5C191 16.3 190.1 17 189 17C187.9 17 187 16.3 187 15.5Z" fill="white"/>
<path d="M195 16C195 15.5 195.9 15 197 15C198.1 15 199 15.5 199 16C199 16.6 198.1 17 197 17C195.9 17 195 16.6 195 16Z" fill="white"/>
<path d="M55 14.5C55 13.7 55.9 13 57 13C58.1 13 59 13.7 59 14.5C59 15.3 58.1 16 57 16C55.9 16 55 15.3 55 14.5Z" fill="white"/>
<path d="M63 15C63 14.5 63.9 14 65 14C66.1 14 67 14.5 67 15C67 15.6 66.1 16 65 16C63.9 16 63 15.6 63 15Z" fill="white"/>
<path d="M12 13.5C12 12.7 12.7 12 13.5 12C14.3 12 15 12.7 15 13.5C15 14.3 14.3 15 13.5 15C12.7 15 12 14.3 12 13.5Z" fill="white"/>
<path d="M19 14C19 13.5 19.7 13 20.5 13C21.3 13 22 13.5 22 14C22 14.6 21.3 15 20.5 15C19.7 15 19 14.6 19 14Z" fill="white"/>
<path d="M232 13.5C232 12.7 232.7 12 233.5 12C234.3 12 235 12.7 235 13.5C235 14.3 234.3 15 233.5 15C232.7 15 232 14.3 232 13.5Z" fill="white"/>
<path d="M239 14C239 13.5 239.7 13 240.5 13C241.3 13 242 13.5 242 14C242 14.6 241.3 15 240.5 15C239.7 15 239 14.6 239 14Z" fill="white"/>
<path d="M277 12C277 10.9 277.5 10 278 10C278.6 10 279 10.9 279 12C279 13.1 278.6 14 278 14C277.5 14 277 13.1 277 12Z" fill="white"/>
<path d="M283 12.5C283 11.7 283.5 11 284 11C284.6 11 285 11.7 285 12.5C285 13.3 284.6 14 284 14C283.5 14 283 13.3 283 12.5Z" fill="white"/>
<path d="M409 12C409 10.9 409.5 10 410 10C410.6 10 411 10.9 411 12C411 13.1 410.6 14 410 14C409.5 14 409 13.1 409 12Z" fill="white"/>
<path d="M415 12.5C415 11.7 415.5 11 416 11C416.6 11 417 11.7 417 12.5C417 13.3 416.6 14 416 14C415.5 14 415 13.3 415 12.5Z" fill="white"/>
<path d="M321 10.5C321 9.1 321.5 8 322 8C322.6 8 323 9.1 323 10.5C323 11.9 322.6 13 322 13C321.5 13 321 11.9 321 10.5Z" fill="white"/>
<path d="M327 11C327 9.9 327.5 9 328 9C328.6 9 329 9.9 329 11C329 12.1 328.6 13 328 13C327.5 13 327 12.1 327 11Z" fill="white"/>
<path d="M365 10.5C365 9.1 365.5 8 366 8C366.6 8 367 9.1 367 10.5C367 11.9 366.6 13 366 13C365.5 13 365 11.9 365 10.5Z" fill="white"/>
<path d="M371 11C371 9.9 371.5 9 372 9C372.6 9 373 9.9 373 11C373 12.1 372.6 13 372 13C371.5 13 371 12.1 371 11Z" fill="white"/>
</g>
<defs>
<clipPath id="clip0">
<rect width="440" height="30" fill="white"/>
</clipPath>
</defs>
</svg>
